<?xml version="1.0" standalone="no"?>
<!DOCTYPE svg PUBLIC "-//W3C//DTD SVG 20010904//EN"
 "http://www.w3.org/TR/2001/REC-SVG-20010904/DTD/svg10.dtd">
<svg version="1.0" xmlns="http://www.w3.org/2000/svg"
 width="1150.000000pt" height="1150.000000pt" viewBox="0 0 1150.000000 1150.000000"
 preserveAspectRatio="xMidYMid meet">
<metadata>
Created by potrace 1.11, written by Peter Selinger 2001-2013
</metadata>
<g transform="translate(0.000000,1150.000000) scale(0.100000,-0.100000)"
fill="#000000" stroke="none">
<path d="M4180 6795 l0 -2615 525 0 525 0 0 1045 0 1045 525 0 525 0 0 -1045
0 -1045 520 0 520 0 0 1570 0 1570 -1045 0 -1045 0 0 1045 0 1045 -525 0 -525
0 0 -2615z"/>
<path d="M520 4705 l0 -2615 525 0 525 0 0 1045 0 1045 1045 0 1045 0 0 1570
0 1570 -1570 0 -1570 0 0 -2615z m2090 1040 l0 -525 -520 0 -520 0 0 525 0
525 520 0 520 0 0 -525z"/>
<path d="M7840 5750 l0 -1570 525 0 525 0 0 1045 0 1045 525 0 525 0 0 -1045
0 -1045 520 0 520 0 0 1570 0 1570 -1570 0 -1570 0 0 -1570z"/>
</g>
</svg>
